HIERARCHY
ROOT root
{
	OFFSET 0.000000 0.000000 0.000000
	CHANNELS 6 Xposition Yposition Zposition Zrotation Yrotation Xrotation
	JOINT lhip
	{
		OFFSET 0.058581 -0.082280 -0.017664
		CHANNELS 3 Zrotation Yrotation Xrotation
		JOINT lknee
		{
			OFFSET 0.043451 -0.386469 0.008037
			CHANNELS 3 Zrotation Yrotation Xrotation
			JOINT lankle
			{
				OFFSET -0.014790 -0.426874 -0.037428
				CHANNELS 3 Zrotation Yrotation Xrotation
				JOINT ltoe
				{
					OFFSET 0.041054 -0.060286 0.122042
					CHANNELS 3 Zrotation Yrotation Xrotation
					End Site
					{
						OFFSET 0.000000 0.000000 0.000000
					}
				}
			}
		}
	}
	JOINT rhip
	{
		OFFSET -0.060310 -0.090513 -0.013543
		CHANNELS 3 Zrotation Yrotation Xrotation
		JOINT rknee
		{
			OFFSET -0.043257 -0.383688 -0.004843
			CHANNELS 3 Zrotation Yrotation Xrotation
			JOINT rankle
			{
				OFFSET 0.019056 -0.420046 -0.034562
				CHANNELS 3 Zrotation Yrotation Xrotation
				JOINT rtoe
				{
					OFFSET -0.034840 -0.062106 0.130323
					CHANNELS 3 Zrotation Yrotation Xrotation
					End Site
					{
						OFFSET 0.000000 0.000000 0.000000
					}
				}
			}
		}
	}
	JOINT lowerback
	{
		OFFSET 0.004439 0.124404 -0.038385
		CHANNELS 3 Zrotation Yrotation Xrotation
		JOINT upperback
		{
			OFFSET 0.004488 0.137956 0.026820
			CHANNELS 3 Zrotation Yrotation Xrotation
			JOINT chest
			{
				OFFSET -0.002265 0.056032 0.002855
				CHANNELS 3 Zrotation Yrotation Xrotation
				JOINT lowerneck
				{
					OFFSET -0.013390 0.211636 -0.033468
					CHANNELS 3 Zrotation Yrotation Xrotation
					JOINT upperneck
					{
						OFFSET 0.010113 0.088937 0.050410
						CHANNELS 3 Zrotation Yrotation Xrotation
						End Site
						{
							OFFSET 0.000000 0.000000 0.000000
						}
					}
				}
				JOINT lclavicle
				{
					OFFSET 0.071702 0.114000 -0.018898
					CHANNELS 3 Zrotation Yrotation Xrotation
					JOINT lshoulder
					{
						OFFSET 0.122921 0.045205 -0.019046
						CHANNELS 3 Zrotation Yrotation Xrotation
						JOINT lelbow
						{
							OFFSET 0.255332 -0.015649 -0.022946
							CHANNELS 3 Zrotation Yrotation Xrotation
							JOINT lwrist
							{
								OFFSET 0.265709 0.012698 -0.007375
								CHANNELS 3 Zrotation Yrotation Xrotation
								End Site
								{
									OFFSET 0.000000 0.000000 0.000000
								}
							}
						}
					}
				}
				JOINT rclavicle
				{
					OFFSET -0.082954 0.112472 -0.023707
					CHANNELS 3 Zrotation Yrotation Xrotation
					JOINT rshoulder
					{
						OFFSET -0.113228 0.046853 -0.008472
						CHANNELS 3 Zrotation Yrotation Xrotation
						JOINT relbow
						{
							OFFSET -0.260127 -0.014369 -0.031269
							CHANNELS 3 Zrotation Yrotation Xrotation
							JOINT rwrist
							{
								OFFSET -0.269108 0.006794 -0.006027
								CHANNELS 3 Zrotation Yrotation Xrotation
								End Site
								{
									OFFSET 0.000000 0.000000 0.000000
								}
							}
						}
					}
				}
			}
		}
	}
}
MOTION
Frames: 7
Frame Time: 0.033333
-0.308978 3.091464 0.970682 0.726513 0.548684 114.054920 4.775934 2.800218 -25.906283 -5.615718 5.995117 -4.481197 3.635571 7.814014 -5.770328 0.000000 -0.000000 0.000000 -1.943353 -0.432957 -31.221515 1.888250 -6.064054 4.109746 2.763329 -6.518499 -6.817661 0.000000 -0.000000 0.000000 0.555217 -0.595757 25.232194 0.356383 -0.779055 -5.455985 1.426252 -1.474809 1.682989 0.874046 4.273491 -6.050021 3.941962 -0.318531 4.752153 -30.087650 -0.357709 4.050005 -54.060992 -8.437605 11.430148 12.329114 -35.940746 -5.735380 4.417167 -6.195614 -14.111904 27.150968 3.984164 4.849675 53.621743 7.301217 15.094433 -14.154720 31.545819 -8.360952 2.345055 6.114281 -11.875077 
-0.309320 3.090197 0.970838 0.739663 0.469781 114.029590 4.718678 2.752598 -25.799343 -5.612261 5.982087 -4.496824 3.899148 7.827048 -5.783770 0.000000 -0.000000 0.000000 -2.002496 -0.469203 -31.091039 1.912033 -6.048378 4.096764 2.991701 -6.528049 -6.954899 0.000000 -0.000000 0.000000 0.485756 -0.564139 25.013370 0.401997 -0.733734 -5.384623 1.294446 -1.380185 1.573237 0.976413 4.183520 -5.938975 4.038548 -0.428482 4.695543 -30.136898 -0.275333 3.890761 -54.107820 -8.392852 11.730015 12.239518 -35.121138 -5.402226 4.488052 -5.977564 -14.133228 27.288038 3.560603 4.875418 54.193323 7.127889 14.833045 -13.972114 29.731652 -8.902673 2.589373 5.653449 -12.579889 
-0.309684 3.088631 0.971114 0.828575 0.444567 113.930030 4.694748 2.722223 -25.645146 -5.570724 5.867596 -4.465239 3.889605 7.900568 -5.862325 0.000000 -0.000000 0.000000 -1.978948 -0.456788 -30.874708 1.870806 -6.031510 4.035141 2.961064 -6.561317 -7.096874 0.000000 -0.000000 0.000000 0.546208 -0.608409 24.894946 0.360703 -0.688838 -5.464749 1.225278 -1.370043 1.554753 1.067432 4.176959 -5.958890 4.048258 -0.476603 4.768362 -30.299107 -0.157683 3.764739 -54.031198 -8.309582 11.855182 12.034795 -34.323264 -5.236822 4.368495 -5.883850 -13.914175 27.489529 3.320787 4.915537 54.420263 6.879156 14.683336 -13.251352 27.946243 -8.961803 2.804674 5.321627 -12.869042 
-0.310179 3.086176 0.971533 0.941817 0.443382 113.768778 4.712103 2.732236 -25.307637 -5.575537 5.706392 -4.536382 3.854880 7.972786 -5.935162 0.000000 -0.000000 0.000000 -1.877477 -0.485509 -30.486904 1.844360 -5.930680 3.939170 2.906919 -6.668860 -7.215296 0.000000 -0.000000 0.000000 0.555045 -0.614401 24.681430 0.428211 -0.712209 -5.538755 1.273523 -1.377240 1.511849 1.027061 4.111151 -5.911747 4.045037 -0.390548 4.848872 -30.464484 -0.041159 3.802374 -54.097565 -8.168163 11.847500 11.691565 -33.317988 -4.991229 3.981744 -5.932921 -13.531917 27.625001 3.163160 4.995833 54.359819 6.367236 14.645345 -12.214516 26.449552 -8.144483 3.683238 5.206810 -12.659560 
-0.310342 3.084793 0.971793 0.903450 0.403743 113.722689 4.655526 2.756486 -25.128281 -5.592993 5.663504 -4.615013 3.882760 8.018409 -5.984320 0.000000 -0.000000 0.000000 -1.856385 -0.565462 -30.351614 1.845666 -5.796538 3.919772 2.902931 -6.660004 -7.270781 0.000000 -0.000000 0.000000 0.502325 -0.569994 24.414203 0.449691 -0.723584 -5.504562 1.282202 -1.395169 1.487786 1.024739 4.092217 -5.883189 4.064279 -0.353884 4.898694 -30.537248 0.017675 3.853310 -54.131888 -8.070807 11.855504 11.534940 -32.815601 -4.881543 3.767858 -5.966107 -13.350028 27.725288 3.071443 5.058062 54.286607 6.159767 14.685017 -11.759155 25.831179 -7.566873 4.188369 5.177325 -12.309955 
-0.310430 3.083019 0.972113 0.816716 0.352391 113.650880 4.581703 2.764797 -24.874953 -5.606415 5.617259 -4.723380 3.936543 8.112199 -6.062987 0.000000 -0.000000 0.000000 -1.899542 -0.581290 -30.128258 1.876098 -5.674059 3.824088 2.875560 -6.681709 -7.343507 0.000000 -0.000000 0.000000 0.452339 -0.558951 24.020739 0.439396 -0.722745 -5.476804 1.250481 -1.404593 1.493983 1.102503 4.091211 -5.795513 4.029240 -0.313898 5.034143 -30.605775 0.156891 3.837647 -54.181803 -8.017001 11.863987 11.343387 -32.083584 -4.833203 3.765822 -5.955885 -13.204663 27.811791 2.989260 5.065262 54.290604 6.071704 14.804744 -11.281688 24.904607 -7.071600 4.307250 5.165326 -11.979957 
-0.310504 3.081011 0.972481 0.689942 0.324783 113.454371 4.534223 2.767633 -24.439028 -5.602916 5.564868 -4.883436 3.975522 8.245937 -6.148606 0.000000 -0.000000 0.000000 -1.930577 -0.558031 -29.718134 1.910626 -5.549883 3.663639 2.861544 -6.704289 -7.413690 0.000000 -0.000000 0.000000 0.417117 -0.554273 23.732520 0.422431 -0.741702 -5.508849 1.228780 -1.405720 1.523565 1.154044 4.077276 -5.650165 3.967811 -0.280139 5.242894 -30.611272 0.270962 3.790716 -54.279956 -7.980121 11.813551 11.205907 -31.296224 -4.878439 3.899454 -5.886321 -13.139456 27.827146 2.954172 5.007623 54.362030 6.123924 14.857808 -10.974206 24.018652 -6.819038 4.170223 5.091451 -11.673644 
